{"title":"Robin Hood 2010 TS.Mkv.FEEL-FREE","uid":5594184,"size":1398027961,"categoryP":"video","categoryS":"movies","magnet":"?xt=urn:btih:e1e1c511318af821ce2bda2d9e55e96230b014eb&amp;dn=Robin+Hood+2010+TS.Mkv.FEEL-FREE&amp;tr=udp%3A%2F%2Ftracker.openbittorrent.com%3A80&amp;tr=udp%3A%2F%2Fopen.demonii.com%3A1337&amp;tr=udp%3A%2F%2Ftracker.coppersurfer.tk%3A6969&amp;tr=udp%3A%2F%2Fexodus.desync.com%3A6969","seeders":0,"leechers":0,"uploader":"neon","files":9,"time":1274973947,"description":"Robin Hood 2010 TS.Mkv.FEEL-FREE\n\nFEEL-FREE TEAM\n\n\n..............................................\nPlot:\nThe story of an archer in the army of Richard Coeur de Lion who fights against the Norman invaders and becomes the legendary hero known as Robin Hood.\n................................................\n\n...................................................\nGENRE:Action | Drama\nSource Audio:Prism.Thanks.\nSource video:TS ELEKTI4KA.Thanks.\nAudio Language.: English\nEncoder: Tony2\niMDB URL:http://www.imdb.com/title/tt0955308/\nSubtitles: ROMANA\n................................................\nGeneral\nComplete name : Robin Hood 2010 TS.Mkv.FEEL-FREE.mkv\nFormat : Matroska\nFile size : 1.30 GiB\nDuration : 2h 11mn\nOverall bit rate : 1 416 Kbps\n....................................................\nVideo\nID : 1\nFormat : MPEG-4 Visual\nFormat profile : AdvancedSimple@L5\nFormat settings, BVOP : Yes\nFormat settings, QPel : No\nFormat settings, GMC : No warppoints\nFormat settings, Matrix : Custom\nCodec ID : XVID\nCodec ID/Hint : XviD\nDuration : 2h 11mn\nBit rate : 1 260 Kbps\nWidth : 720 pixels\nHeight : 336 pixels\nDisplay aspect ratio : 2.2:1\nFrame rate : 23.976 fps\nResolution : 24 bits\nColorimetry : 4:2:0\nScan type : Progressive\nBits/(Pixel*Frame) : 0.217\nStream size : 1.16 GiB (89%)\nWriting library : XviD 1.2.1 (UTC 2008-12-04)\n.................................................\nAudio\nID : 2\nFormat : AC-3\nFormat/Info : Audio Coding 3\nCodec ID : A_AC3\nDuration : 2h 11mn\nBit rate mode : Constant\nBit rate : 128 Kbps\nChannel(s) : 2 channels\nChannel positions : L R\nSampling rate : 44.1 KHz\nStream size : 120 MiB (9%)\n\n\n.. &lt;a href=&quot;\nhttp://img686.imageshack.us/img686/1116/uxxkx.jpg&quot; rel=&quot;nofollow&quot; target=&quot;_NEW&quot;&gt;\nhttp://img686.imageshack.us/img686/1116/uxxkx.jpg&lt;/a&gt; &lt;a href=&quot;\nhttp://img39.imageshack.us/img39/2789/ibe1w3.png&quot; rel=&quot;nofollow&quot; target=&quot;_NEW&quot;&gt;\nhttp://img39.imageshack.us/img39/2789/ibe1w3.png&lt;/a&gt; &lt;a href=&quot;\nhttp://img340.imageshack.us/img340/1173/jrxmx2.png&quot; rel=&quot;nofollow&quot; target=&quot;_NEW&quot;&gt;\nhttp://img340.imageshack.us/img340/1173/jrxmx2.png&lt;/a&gt; &lt;a href=&quot;\nhttp://img249.imageshack.us/img249/6379/1zfo40x.png&quot; rel=&quot;nofollow&quot; target=&quot;_NEW&quot;&gt;\nhttp://img249.imageshack.us/img249/6379/1zfo40x.png&lt;/a&gt; &lt;a href=&quot;\nhttp://img411.imageshack.us/img411/3848/2vkkavk.png&quot; rel=&quot;nofollow&quot; target=&quot;_NEW&quot;&gt;\nhttp://img411.imageshack.us/img411/3848/2vkkavk.png&lt;/a&gt;\n..............................................\n","torrent":{"xt":"urn:btih:e1e1c511318af821ce2bda2d9e55e96230b014eb","amp;dn":"Robin+Hood+2010+TS.Mkv.FEEL-FREE","amp;tr":["udp%3A%2F%2Ftracker.openbittorrent.com%3A80","udp%3A%2F%2Fopen.demonii.com%3A1337","udp%3A%2F%2Ftracker.coppersurfer.tk%3A6969","udp%3A%2F%2Fexodus.desync.com%3A6969"],"infoHash":"e1e1c511318af821ce2bda2d9e55e96230b014eb","infoHashBuffer":{"type":"Buffer","data":[225,225,197,17,49,138,248,33,206,43,218,45,158,85,233,98,48,176,20,235]},"announce":[],"urlList":[]}}